<?xml version="1.0" encoding="utf-8"?>
<!-- Generator: Adobe Illustrator 23.0.0, SVG Export Plug-In . SVG Version: 6.00 Build 0)  -->
<svg version="1.1" id="Layer_1" xmlns="http://www.w3.org/2000/svg" xmlns:xlink="http://www.w3.org/1999/xlink" x="0px" y="0px"
	 viewBox="0 0 193.1 56.1" style="enable-background:new 0 0 193.1 56.1;" xml:space="preserve">
<style type="text/css">
	.st0{fill:url(#SVGID_1_);}
	.st1{fill:url(#SVGID_2_);}
	.st2{fill:url(#SVGID_3_);}
	.st3{fill:url(#SVGID_4_);}
	.st4{fill:#FFFFFF;}
</style>
<g>
	<g>
		<linearGradient id="SVGID_1_" gradientUnits="userSpaceOnUse" x1="11.7203" y1="10.9435" x2="26.021" y2="10.9435">
			<stop  offset="0" style="stop-color:#F1644B"/>
			<stop  offset="0.2025" style="stop-color:#E9685B"/>
			<stop  offset="0.5991" style="stop-color:#D47385"/>
			<stop  offset="1" style="stop-color:#BB80B6"/>
		</linearGradient>
		<circle class="st0" cx="18.9" cy="10.9" r="7.1"/>
		
			<linearGradient id="SVGID_2_" gradientUnits="userSpaceOnUse" x1="65.2884" y1="-309.8466" x2="76.6144" y2="-309.8466" gradientTransform="matrix(0.9687 0.2481 -0.2481 0.9687 -122.0141 307.6238)">
			<stop  offset="0" style="stop-color:#F1644B"/>
			<stop  offset="0.2025" style="stop-color:#E9685B"/>
			<stop  offset="0.5991" style="stop-color:#D47385"/>
			<stop  offset="1" style="stop-color:#BB80B6"/>
		</linearGradient>
		<circle class="st1" cx="23.6" cy="25.1" r="5.7"/>
		
			<linearGradient id="SVGID_3_" gradientUnits="userSpaceOnUse" x1="79.5739" y1="-423.8414" x2="84.3499" y2="-423.8414" gradientTransform="matrix(0.9485 0.3168 -0.3168 0.9485 -198.8419 405.9711)">
			<stop  offset="0" style="stop-color:#F1644B"/>
			<stop  offset="0.2025" style="stop-color:#E9685B"/>
			<stop  offset="0.5991" style="stop-color:#D47385"/>
			<stop  offset="1" style="stop-color:#BB80B6"/>
		</linearGradient>
		<circle class="st2" cx="13.2" cy="29.9" r="2.4"/>
		<linearGradient id="SVGID_4_" gradientUnits="userSpaceOnUse" x1="4.4202" y1="20.658" x2="13.7713" y2="20.658">
			<stop  offset="0" style="stop-color:#F1644B"/>
			<stop  offset="0.2025" style="stop-color:#E9685B"/>
			<stop  offset="0.5991" style="stop-color:#D47385"/>
			<stop  offset="1" style="stop-color:#BB80B6"/>
		</linearGradient>
		<circle class="st3" cx="8.9" cy="20.7" r="4.4"/>
	</g>
	<g>
		<path class="st4" d="M54.9,15.5c0,0.7-0.2,1.3-0.7,1.8c-0.5,0.5-1.1,0.8-1.8,0.8h-9.6V25c0,0.7-0.2,1.3-0.7,1.8
			c-0.5,0.5-1.1,0.8-1.8,0.8c-0.7,0-1.3-0.3-1.8-0.8c-0.5-0.5-0.7-1.1-0.7-1.9v-9.4c0-3.3,1.2-6.2,3.5-8.7s5.1-3.7,8.3-3.7h2.5
			c0.7,0,1.3,0.3,1.8,0.8c0.5,0.5,0.7,1.1,0.7,1.8c0,0.7-0.2,1.3-0.7,1.8c-0.5,0.5-1.1,0.8-1.8,0.8h-2.5c-1.3,0-2.6,0.4-3.7,1.3
			c-1.2,0.9-2,1.9-2.5,3.3h9.1c0.7,0,1.3,0.3,1.8,0.8C54.7,14.1,54.9,14.8,54.9,15.5z"/>
		<path class="st4" d="M75.8,18.1c0,2.7-0.9,4.9-2.8,6.8c-1.9,1.9-4.2,2.8-6.9,2.8c-2.7,0-4.9-0.9-6.8-2.8c-1.9-1.9-2.8-4.2-2.8-6.8
			c0-2.7,0.9-5,2.8-6.9c1.9-1.9,4.2-2.8,6.8-2.8c2.7,0,5,0.9,6.9,2.8C74.9,13.1,75.8,15.4,75.8,18.1z M70.8,18
			c0-1.3-0.4-2.3-1.3-3.2c-0.9-0.9-2-1.3-3.2-1.3c-1.2,0-2.3,0.4-3.2,1.3c-0.9,0.9-1.3,2-1.3,3.2c0,1.3,0.4,2.3,1.3,3.2
			c0.9,0.9,2,1.3,3.2,1.3c1.3,0,2.3-0.4,3.2-1.3C70.3,20.4,70.8,19.3,70.8,18z"/>
		<path class="st4" d="M96.8,18.1c0,2.7-0.9,4.9-2.8,6.8c-1.9,1.9-4.2,2.8-6.9,2.8c-2.7,0-4.9-0.9-6.8-2.8c-1.9-1.9-2.8-4.2-2.8-6.8
			c0-2.7,0.9-5,2.8-6.9c1.9-1.9,4.2-2.8,6.8-2.8c2.7,0,5,0.9,6.9,2.8C95.9,13.1,96.8,15.4,96.8,18.1z M91.7,18
			c0-1.3-0.4-2.3-1.3-3.2c-0.9-0.9-2-1.3-3.2-1.3c-1.2,0-2.3,0.4-3.2,1.3c-0.9,0.9-1.3,2-1.3,3.2c0,1.3,0.4,2.3,1.3,3.2
			c0.9,0.9,2,1.3,3.2,1.3c1.3,0,2.3-0.4,3.2-1.3C91.3,20.4,91.7,19.3,91.7,18z"/>
		<path class="st4" d="M111.8,11c0,0.6-0.2,1.2-0.7,1.7c-0.4,0.5-1,0.7-1.6,0.7c-0.2,0-0.5,0-1,0c-0.5,0-0.8,0-1,0
			c-1.2,0-2.2,0.5-3.1,1.4c-0.9,0.9-1.3,2-1.3,3.3v7c0,0.7-0.2,1.3-0.7,1.7c-0.5,0.4-1,0.6-1.6,0.6c-0.6,0-1.1-0.2-1.6-0.7
			c-0.5-0.4-0.7-1-0.7-1.7v-7c0-2.5,0.8-4.7,2.4-6.5c1.6-1.8,3.6-2.8,6-3l-0.6,0.7c0.4-0.5,0.8-0.7,1.2-0.7h3.1v0.3
			C111.5,9.4,111.8,10.1,111.8,11z"/>
		<path class="st4" d="M119,25.1c0,0.7-0.3,1.3-1,1.9c-0.6,0.5-1.1,0.7-1.6,0.7c-0.5,0-1.1-0.3-1.6-0.9c-0.6-0.6-0.9-1.2-0.9-1.8
			V3.5c0-0.7,0.3-1.3,0.9-1.9c0.6-0.5,1.1-0.7,1.6-0.7c0.5,0,1,0.3,1.6,0.8c0.6,0.6,0.9,1.2,0.9,1.9V25.1z"/>
		<path class="st4" d="M140,18.1c0,2.7-0.9,4.9-2.8,6.8c-1.9,1.9-4.2,2.8-6.9,2.8c-2.7,0-4.9-0.9-6.8-2.8c-1.9-1.9-2.8-4.2-2.8-6.8
			c0-2.7,0.9-5,2.8-6.9c1.9-1.9,4.2-2.8,6.8-2.8c2.7,0,5,0.9,6.9,2.8C139,13.1,140,15.4,140,18.1z M134.9,18c0-1.3-0.4-2.3-1.3-3.2
			c-0.9-0.9-2-1.3-3.2-1.3c-1.2,0-2.3,0.4-3.2,1.3c-0.9,0.9-1.3,2-1.3,3.2c0,1.3,0.4,2.3,1.3,3.2c0.9,0.9,2,1.3,3.2,1.3
			c1.3,0,2.3-0.4,3.2-1.3C134.5,20.4,134.9,19.3,134.9,18z"/>
		<path class="st4" d="M161,18.1c0,2.7-0.9,4.9-2.8,6.8c-1.9,1.9-4.2,2.8-6.9,2.8c-2.7,0-4.9-0.9-6.8-2.8c-1.9-1.9-2.8-4.2-2.8-6.8
			c0-2.7,0.9-5,2.8-6.9c1.9-1.9,4.2-2.8,6.8-2.8c2.7,0,5,0.9,6.9,2.8C160,13.1,161,15.4,161,18.1z M155.9,18c0-1.3-0.4-2.3-1.3-3.2
			c-0.9-0.9-2-1.3-3.2-1.3c-1.2,0-2.3,0.4-3.2,1.3c-0.9,0.9-1.3,2-1.3,3.2c0,1.3,0.4,2.3,1.3,3.2c0.9,0.9,2,1.3,3.2,1.3
			c1.3,0,2.3-0.4,3.2-1.3C155.4,20.4,155.9,19.3,155.9,18z"/>
		<path class="st4" d="M182.3,18.4c0,2.8-0.9,5.1-2.8,7.1c-1.9,2-4.2,3-6.9,3c-1.6,0-3.1-0.4-4.5-1.3v5.3c0,0.7-0.3,1.3-0.8,1.9
			c-0.5,0.5-1.1,0.8-1.8,0.8c-0.7,0-1.3-0.2-1.8-0.7c-0.5-0.5-0.8-1.1-0.8-1.9V18.4c0-2.8,0.9-5.1,2.8-7.1c1.9-2,4.2-3,6.8-3
			c2.7,0,5,1,6.9,3C181.3,13.3,182.3,15.7,182.3,18.4z M177.2,18.4c0-1.3-0.4-2.4-1.3-3.4c-0.9-0.9-2-1.4-3.2-1.4
			c-1.2,0-2.3,0.5-3.2,1.4c-0.9,0.9-1.3,2-1.3,3.4c0,1.3,0.4,2.4,1.3,3.4c0.9,0.9,2,1.4,3.2,1.4c1.3,0,2.4-0.5,3.2-1.4
			C176.8,20.8,177.2,19.7,177.2,18.4z"/>
	</g>
	<g>
		<path class="st4" d="M13,51.5h-2.3L10,48.3H7.2l-0.7,3.2H4.3l2.9-12.3h2.7L13,51.5z M9.6,46.2l-1-3.8l-0.9,3.8H9.6z"/>
		<path class="st4" d="M21.4,51.5h-1.9V39.2h4c1.2,0,2.1,0.4,2.7,1.2s0.9,1.8,0.9,3c0,3.1-1.2,4.7-3.5,4.7h-2.2V51.5z M21.4,46.2H23
			c0.4,0,0.7-0.1,1-0.2c0.3-0.1,0.5-0.3,0.6-0.4c0.1-0.2,0.2-0.4,0.3-0.7c0.1-0.3,0.1-0.5,0.1-0.7s0-0.4,0-0.7c0-0.1,0-0.1,0-0.1
			c0-0.9-0.2-1.5-0.5-1.8c-0.4-0.3-0.9-0.5-1.7-0.5h-1.6V46.2z"/>
		<path class="st4" d="M34.3,46.3v5.2c-1.2,0.1-2.2,0.2-2.9,0.2c-0.3,0-0.6,0-0.8,0c-1.9-0.2-2.9-1.2-3-2.9c0-0.1,0-0.2,0-0.2v-1.5
			c0-1.2,0.4-1.9,1.2-2.3c0.3-0.2,0.7-0.3,1.2-0.3c0.1,0,0.1,0,0.2,0c0.5,0,1,0.1,1.3,0.2c0.4,0.1,0.7,0.2,0.9,0.4
			c0-0.7-0.6-1.1-1.9-1.1l0.2-1.3c0.4,0,0.8,0,1.2,0.1s0.7,0.1,0.9,0.3c0.2,0.1,0.5,0.2,0.6,0.4c0.2,0.1,0.3,0.3,0.4,0.5
			c0.1,0.2,0.2,0.4,0.3,0.6s0.1,0.4,0.1,0.6s0,0.5,0,0.6S34.3,46,34.3,46.3z M32.3,49.8v-2.7c-0.2-0.1-0.4-0.2-0.7-0.4
			c-0.3-0.1-0.6-0.2-1-0.3c-0.1,0-0.2,0-0.3,0c-0.2,0-0.4,0-0.6,0.1c-0.2,0.1-0.4,0.4-0.4,0.7v1c0,1.1,0.6,1.6,1.9,1.6
			C31.6,49.9,32,49.9,32.3,49.8z"/>
		<path class="st4" d="M37.9,51.5H36v-8.8h1.8l0.1,0.1c0.4-0.1,0.8-0.2,1.2-0.2c0.1,0,0.2,0,0.4,0c0.2,0,0.4,0,0.5,0
			c0.2,0,0.5,0.1,1,0.2l-0.5,1.9c-0.3-0.2-0.6-0.2-0.9-0.2c-0.3,0-0.5,0.1-0.8,0.2c-0.6,0.2-0.8,0.7-0.8,1.3V51.5z"/>
		<path class="st4" d="M45.1,50.2l-0.6,1.5c-1.8,0-2.7-0.9-2.7-2.5v-10h2v3.5h1.7L45,44.5h-1.2v4.7c0,0.4,0.1,0.7,0.3,0.8
			S44.6,50.2,45.1,50.2z"/>
		<path class="st4" d="M53.5,51.5h-1.9V46c0-0.7-0.3-1.1-0.8-1.4c-0.2-0.1-0.4-0.2-0.7-0.2c-0.4,0-0.8,0.1-1.2,0.3v6.8H47v-8.8h1.7
			l0.2,0.1c0.5-0.2,1-0.3,1.5-0.3c0.5,0,1,0.1,1.5,0.3c1,0.5,1.5,1.3,1.5,2.5V51.5z"/>
		<path class="st4" d="M61.6,48.2l-4.4,0.2v0.5c0,0.6,0.3,0.9,0.8,1c0.1,0,0.2,0,0.2,0c0.5,0,1.3-0.2,2.2-0.7l0.7,1.7
			c-0.9,0.5-1.8,0.8-2.9,0.8c0,0-0.1,0-0.1,0c-0.8,0-1.5-0.2-2-0.6c-0.5-0.4-0.8-1.1-0.8-2v-3.6c0-0.9,0.3-1.7,0.9-2.2
			c0.6-0.5,1.4-0.8,2.3-0.8s1.7,0.3,2.3,0.8c0.5,0.5,0.8,1.2,0.8,2.2V48.2z M59.6,46.5v-0.9c0-0.4-0.1-0.6-0.3-0.8
			c-0.2-0.2-0.5-0.3-0.8-0.3c-0.4,0-0.8,0.1-1,0.4c-0.2,0.2-0.3,0.5-0.3,0.8v1.1L59.6,46.5z"/>
		<path class="st4" d="M65.2,51.5h-1.9v-8.8h1.8l0.1,0.1c0.4-0.1,0.8-0.2,1.2-0.2c0.1,0,0.2,0,0.4,0c0.2,0,0.4,0,0.5,0
			c0.2,0,0.5,0.1,1,0.2l-0.5,1.9c-0.3-0.2-0.6-0.2-0.9-0.2c-0.3,0-0.5,0.1-0.8,0.2c-0.6,0.2-0.8,0.7-0.8,1.3V51.5z"/>
		<path class="st4" d="M68.6,49.3l1.9-0.2c0,0.2,0.1,0.4,0.3,0.6c0.2,0.2,0.5,0.3,1,0.3c0.4,0,0.7-0.1,0.9-0.3
			c0.2-0.2,0.3-0.4,0.3-0.7c0-0.3-0.1-0.6-0.4-0.8c-0.3-0.2-0.6-0.4-1-0.5c-0.4-0.1-0.8-0.3-1.2-0.4c-0.4-0.2-0.8-0.4-1.1-0.8
			c-0.3-0.4-0.5-0.8-0.6-1.4c0-0.1,0-0.1,0-0.2c0-0.6,0.2-1.1,0.7-1.6c0.5-0.5,1.3-0.8,2.3-0.8c0.4,0,0.7,0,1.1,0.1s0.6,0.2,0.7,0.3
			l0.2,0.1l-0.6,1.8c-0.3-0.3-0.7-0.4-1.4-0.4c-0.3,0-0.6,0-0.7,0.1c-0.2,0.1-0.2,0.2-0.2,0.3s0,0.2,0,0.3c0,0.2,0.2,0.3,0.5,0.5
			s0.7,0.3,1.1,0.4c0.4,0.1,0.8,0.3,1.2,0.5c0.4,0.2,0.7,0.5,1,0.9c0.3,0.4,0.4,0.9,0.4,1.5c0,0.8-0.3,1.4-0.8,1.9
			c-0.5,0.5-1.4,0.8-2.4,0.8c-1,0-1.8-0.2-2.4-0.7C69,50.6,68.7,50,68.6,49.3z"/>
		<path class="st4" d="M83.2,51.5h-1.9v-5.4c0-0.5-0.1-1-0.3-1.2c-0.2-0.3-0.5-0.5-0.8-0.5c-0.1,0-0.2,0-0.3,0c-0.2,0-0.4,0-0.6,0.1
			c-0.3,0.1-0.5,0.1-0.6,0.2v6.8h-1.9V39.2h1.9v3.6c0.3-0.1,0.8-0.2,1.3-0.2c0,0,0,0,0.1,0c0.5,0,1.1,0.1,1.7,0.3
			c1,0.5,1.5,1.3,1.5,2.5V51.5z"/>
		<path class="st4" d="M86.6,41.1c-0.3,0-0.5-0.1-0.7-0.3c-0.2-0.2-0.3-0.5-0.3-0.7c0-0.3,0.1-0.5,0.3-0.7c0.2-0.2,0.5-0.3,0.7-0.3
			c0.3,0,0.5,0.1,0.7,0.3s0.3,0.4,0.3,0.7c0,0.3-0.1,0.5-0.3,0.7C87.2,41,86.9,41.1,86.6,41.1z M87.6,51.5h-1.9v-8.8h1.9V51.5z"/>
		<path class="st4" d="M92.4,54.8l-1.9,0.4V42.7h1.8l0.1,0.1c0.4-0.2,0.8-0.3,1.4-0.3c1.1,0,1.9,0.3,2.5,0.9
			c0.6,0.6,0.9,1.5,0.9,2.5v2.4c0,1.1-0.3,1.9-0.9,2.4c-0.6,0.6-1.4,0.9-2.4,0.9c-0.3,0-0.5,0-0.7,0c-0.2,0-0.3-0.1-0.5-0.1
			s-0.2-0.1-0.3-0.1V54.8z M95.1,47.9v-2.1c0-1-0.4-1.4-1.3-1.4c-0.5,0-0.8,0.1-1.1,0.4c-0.2,0.2-0.4,0.6-0.4,1v2.4
			c0,1.1,0.5,1.6,1.4,1.6c0.5,0,0.9-0.1,1.1-0.4C95,49.1,95.1,48.6,95.1,47.9z"/>
		<path class="st4" d="M106.7,51.5h-1.9V41.1l-1.1,0v-1.9h3V51.5z"/>
		<path class="st4" d="M115.7,51.5h-1.9V46c0-0.7-0.3-1.1-0.8-1.4c-0.2-0.1-0.4-0.2-0.7-0.2c-0.4,0-0.8,0.1-1.2,0.3v6.8h-1.9v-8.8
			h1.7l0.2,0.1c0.5-0.2,1-0.3,1.5-0.3c0.5,0,1,0.1,1.5,0.3c1,0.5,1.5,1.3,1.5,2.5V51.5z"/>
		<path class="st4" d="M126.8,51.5h-3.7V39.2h3.3c1.3,0,2.3,0.4,3,1.1c0.7,0.7,1,1.7,1,2.9V48C130.5,50.3,129.3,51.5,126.8,51.5z
			 M128.6,48.2V43c0-0.6-0.2-1.1-0.5-1.4c-0.3-0.3-0.8-0.4-1.5-0.4h-1.5v8.6h1.4c0.3,0,0.5,0,0.7,0c0.2,0,0.4-0.1,0.6-0.2
			c0.2-0.1,0.4-0.3,0.5-0.5C128.5,48.8,128.6,48.5,128.6,48.2z"/>
		<path class="st4" d="M134.3,41.1c-0.3,0-0.5-0.1-0.7-0.3c-0.2-0.2-0.3-0.5-0.3-0.7c0-0.3,0.1-0.5,0.3-0.7s0.5-0.3,0.7-0.3
			c0.3,0,0.5,0.1,0.7,0.3c0.2,0.2,0.3,0.4,0.3,0.7c0,0.3-0.1,0.5-0.3,0.7C134.8,41,134.6,41.1,134.3,41.1z M135.2,51.5h-1.9v-8.8
			h1.9V51.5z"/>
		<path class="st4" d="M137.4,49.3l1.9-0.2c0,0.2,0.1,0.4,0.3,0.6c0.2,0.2,0.5,0.3,1,0.3c0.4,0,0.7-0.1,0.9-0.3
			c0.2-0.2,0.3-0.4,0.3-0.7c0-0.3-0.1-0.6-0.4-0.8c-0.3-0.2-0.6-0.4-1-0.5s-0.8-0.3-1.2-0.4c-0.4-0.2-0.8-0.4-1.1-0.8
			c-0.3-0.4-0.5-0.8-0.6-1.4c0-0.1,0-0.1,0-0.2c0-0.6,0.2-1.1,0.7-1.6c0.5-0.5,1.3-0.8,2.3-0.8c0.4,0,0.7,0,1.1,0.1
			c0.3,0.1,0.6,0.2,0.7,0.3l0.2,0.1l-0.6,1.8c-0.3-0.3-0.7-0.4-1.4-0.4c-0.3,0-0.6,0-0.7,0.1c-0.2,0.1-0.2,0.2-0.2,0.3s0,0.2,0,0.3
			c0,0.2,0.2,0.3,0.5,0.5c0.3,0.1,0.7,0.3,1.1,0.4c0.4,0.1,0.8,0.3,1.2,0.5c0.4,0.2,0.7,0.5,1,0.9c0.3,0.4,0.4,0.9,0.4,1.5
			c0,0.8-0.3,1.4-0.8,1.9c-0.5,0.5-1.4,0.8-2.4,0.8c-1,0-1.8-0.2-2.4-0.7C137.7,50.6,137.4,50,137.4,49.3z"/>
		<path class="st4" d="M150.1,49.5l0.5,1.9c-0.7,0.2-1.4,0.3-2.1,0.3c-0.6,0-1.1-0.1-1.6-0.2c-0.7-0.2-1.2-0.6-1.5-1.1
			c-0.3-0.5-0.5-1.2-0.5-2v-2.2c0-0.8,0.2-1.5,0.5-2.1c0.3-0.6,0.8-1,1.3-1.2c0.4-0.2,0.9-0.3,1.5-0.3c0.1,0,0.2,0,0.3,0
			c0.7,0,1.3,0.2,2,0.5l-0.5,1.7c-0.6-0.2-1.1-0.3-1.6-0.3c-0.3,0-0.6,0.1-0.8,0.2c-0.5,0.3-0.8,0.7-0.8,1.4v2.5
			c0,0.4,0.1,0.7,0.4,0.9c0.3,0.2,0.6,0.3,1,0.3c0.1,0,0.1,0,0.2,0c0.3,0,0.6,0,0.8-0.1C149.6,49.6,149.9,49.6,150.1,49.5z"/>
		<path class="st4" d="M158.9,45.9v2.3c0,1-0.3,1.8-0.8,2.4s-1.4,1-2.4,1c-1.1,0-1.9-0.3-2.5-1s-0.8-1.5-0.8-2.4v-2.3
			c0-1.1,0.3-2,0.9-2.6s1.4-0.9,2.4-0.9c1,0,1.8,0.3,2.4,0.9S158.9,44.9,158.9,45.9z M157,48.4v-2.5c0-0.3,0-0.6-0.1-0.8
			s-0.2-0.4-0.4-0.5c-0.2-0.1-0.3-0.1-0.4-0.2s-0.3,0-0.4,0c-0.9,0-1.4,0.5-1.4,1.5v2.5c0,0.9,0.5,1.3,1.4,1.3c0.4,0,0.7-0.1,1-0.3
			C156.9,49.2,157,48.9,157,48.4z"/>
		<path class="st4" d="M164.3,51.5h-1.9l-2.8-8.8h2.1l1.6,5.4l1.6-5.4h2.1L164.3,51.5z"/>
		<path class="st4" d="M173.7,48.2l-4.4,0.2v0.5c0,0.6,0.3,0.9,0.8,1c0.1,0,0.2,0,0.2,0c0.5,0,1.3-0.2,2.2-0.7l0.7,1.7
			c-0.9,0.5-1.8,0.8-2.9,0.8c0,0-0.1,0-0.1,0c-0.8,0-1.5-0.2-2-0.6c-0.5-0.4-0.8-1.1-0.8-2v-3.6c0-0.9,0.3-1.7,0.9-2.2
			c0.6-0.5,1.4-0.8,2.3-0.8c1,0,1.7,0.3,2.3,0.8c0.5,0.5,0.8,1.2,0.8,2.2V48.2z M171.8,46.5v-0.9c0-0.4-0.1-0.6-0.3-0.8
			c-0.2-0.2-0.5-0.3-0.8-0.3c-0.4,0-0.8,0.1-1,0.4c-0.2,0.2-0.3,0.5-0.3,0.8v1.1L171.8,46.5z"/>
		<path class="st4" d="M177.4,51.5h-1.9v-8.8h1.8l0.1,0.1c0.4-0.1,0.8-0.2,1.2-0.2c0.1,0,0.2,0,0.4,0c0.2,0,0.4,0,0.5,0
			c0.2,0,0.5,0.1,1,0.2l-0.5,1.9c-0.3-0.2-0.6-0.2-0.9-0.2c-0.3,0-0.5,0.1-0.8,0.2c-0.6,0.2-0.8,0.7-0.8,1.3V51.5z"/>
		<path class="st4" d="M185.3,55.2l-0.8-1.5c0.3,0,0.6-0.1,0.8-0.3c0.2-0.2,0.4-0.5,0.4-0.9v-1c-0.5,0.2-1,0.2-1.4,0.2
			c-1,0-1.8-0.3-2.4-0.8c-0.6-0.6-0.8-1.4-0.8-2.5v-5.7h1.9v5.2c0,0.7,0.1,1.2,0.3,1.5c0.2,0.3,0.5,0.4,1,0.4c0.5,0,0.9-0.1,1.1-0.4
			c0.2-0.3,0.3-0.8,0.3-1.5v-2.8c0-0.6,0.2-1.2,0.6-1.7c0.4-0.5,1-0.8,1.6-0.9l0.7,1.6c-0.3,0.1-0.6,0.2-0.8,0.5
			c-0.2,0.2-0.3,0.5-0.3,0.8v7.2c0,0.8-0.2,1.4-0.5,1.8C186.8,54.8,186.2,55.1,185.3,55.2z"/>
	</g>
</g>
</svg>
